<?xml version="1.0" encoding="UTF-8"?>
<svg version="1.1" xmlns="http://www.w3.org/2000/svg" width="64" height="64">
<path d="M0 0 C1.28753174 0.00607269 1.28753174 0.00607269 2.60107422 0.01226807 C3.92147705 0.00939789 3.92147705 0.00939789 5.26855469 0.00646973 C7.13135056 0.00510755 8.99415591 0.00880625 10.85693359 0.01715088 C13.71457158 0.02785 16.57158088 0.01725675 19.42919922 0.00445557 C21.23649228 0.00577716 23.04378495 0.00833954 24.85107422 0.01226807 C25.70942871 0.0082196 26.5677832 0.00417114 27.45214844 0 C33.49615677 0.04797562 33.49615677 0.04797562 35.72607422 2.27789307 C35.97607422 4.77789307 35.97607422 4.77789307 35.72607422 7.27789307 C33.06537217 9.93859511 31.07127743 9.52705852 27.45214844 9.55578613 C26.1646167 9.54971344 26.1646167 9.54971344 24.85107422 9.54351807 C23.53067139 9.54638824 23.53067139 9.54638824 22.18359375 9.54931641 C20.32079788 9.55067858 18.45799252 9.54697988 16.59521484 9.53863525 C13.73757686 9.52793613 10.88056756 9.53852938 8.02294922 9.55133057 C6.21565616 9.55000898 4.40836349 9.5474466 2.60107422 9.54351807 C1.74271973 9.54756653 0.88436523 9.55161499 0 9.55578613 C-6.04400833 9.50781051 -6.04400833 9.50781051 -8.27392578 7.27789307 C-8.52392578 4.77789307 -8.52392578 4.77789307 -8.27392578 2.27789307 C-5.61322373 -0.38280898 -3.619129 0.02872762 0 0 Z " fill="#FEA719" transform="translate(18.27392578125,42.72210693359375)"/>
<path d="M0 0 C1.28753174 0.00607269 1.28753174 0.00607269 2.60107422 0.01226807 C3.92147705 0.00939789 3.92147705 0.00939789 5.26855469 0.00646973 C7.13135056 0.00510755 8.99415591 0.00880625 10.85693359 0.01715088 C13.71457158 0.02785 16.57158088 0.01725675 19.42919922 0.00445557 C21.23649228 0.00577716 23.04378495 0.00833954 24.85107422 0.01226807 C25.70942871 0.0082196 26.5677832 0.00417114 27.45214844 0 C33.49615677 0.04797562 33.49615677 0.04797562 35.72607422 2.27789307 C35.97607422 4.77789307 35.97607422 4.77789307 35.72607422 7.27789307 C33.06537217 9.93859511 31.07127743 9.52705852 27.45214844 9.55578613 C26.1646167 9.54971344 26.1646167 9.54971344 24.85107422 9.54351807 C23.53067139 9.54638824 23.53067139 9.54638824 22.18359375 9.54931641 C20.32079788 9.55067858 18.45799252 9.54697988 16.59521484 9.53863525 C13.73757686 9.52793613 10.88056756 9.53852938 8.02294922 9.55133057 C6.21565616 9.55000898 4.40836349 9.5474466 2.60107422 9.54351807 C1.74271973 9.54756653 0.88436523 9.55161499 0 9.55578613 C-6.04400833 9.50781051 -6.04400833 9.50781051 -8.27392578 7.27789307 C-8.52392578 4.77789307 -8.52392578 4.77789307 -8.27392578 2.27789307 C-5.61322373 -0.38280898 -3.619129 0.02872762 0 0 Z " fill="#FEAD1A" transform="translate(18.27392578125,11.72210693359375)"/>
<path d="M0 0 C1.36560059 0.00303635 1.36560059 0.00303635 2.75878906 0.00613403 C3.68723633 0.00517731 4.61568359 0.00422058 5.57226562 0.00323486 C7.53938871 0.00255298 9.50651403 0.00440781 11.47363281 0.00857544 C14.49581932 0.01392358 17.51785721 0.00863071 20.54003906 0.00222778 C22.44628939 0.00288856 24.35253963 0.00416972 26.25878906 0.00613403 C27.16918945 0.0041098 28.07958984 0.00208557 29.01757812 0 C35.39383938 0.02399685 35.39383938 0.02399685 36.50878906 1.13894653 C36.63378906 4.13894653 36.63378906 4.13894653 36.50878906 7.13894653 C34.56014981 9.08758578 31.61070186 8.26813393 29.01757812 8.27789307 C28.10717773 8.27586884 27.19677734 8.2738446 26.25878906 8.27175903 C25.3303418 8.27271576 24.40189453 8.27367249 23.4453125 8.2746582 C21.47818942 8.27534008 19.5110641 8.27348525 17.54394531 8.26931763 C14.5217588 8.26396948 11.49972092 8.26926236 8.47753906 8.27566528 C6.57128873 8.2750045 4.6650385 8.27372334 2.75878906 8.27175903 C1.39318848 8.27479538 1.39318848 8.27479538 0 8.27789307 C-6.37626125 8.25389622 -6.37626125 8.25389622 -7.49121094 7.13894653 C-7.61621094 4.13894653 -7.61621094 4.13894653 -7.49121094 1.13894653 C-5.54257169 -0.80969271 -2.59312374 0.00975913 0 0 Z " fill="#FEA81A" transform="translate(17.4912109375,27.861053466796875)"/>
<path d="M0 0 C0.99 0.33 1.98 0.66 3 1 C3.125 3.375 3.125 3.375 3 6 C0.3427238 8.6572762 -1.65802123 8.26014618 -5.27392578 8.30354309 C-6.13228027 8.30263168 -6.99063477 8.30172028 -7.875 8.30078125 C-8.75526855 8.30506638 -9.63553711 8.3093515 -10.54248047 8.31376648 C-12.40526468 8.31951441 -14.26807134 8.32000664 -16.13085938 8.31567383 C-18.98866841 8.31251253 -21.84544397 8.33597138 -24.703125 8.36132812 C-26.51041535 8.36360085 -28.31770851 8.36430474 -30.125 8.36328125 C-30.98335449 8.372491 -31.84170898 8.38170074 -32.72607422 8.39118958 C-35.1328125 8.37231445 -35.1328125 8.37231445 -39 8 C-39.66 7.01 -40.32 6.02 -41 5 C-28.13 4.67 -15.26 4.34 -2 4 C-1.34 2.68 -0.68 1.36 0 0 Z " fill="#F28215" transform="translate(51,44)"/>
<path d="M0 0 C0.99 0 1.98 0 3 0 C3.04254356 1.99954746 3.04080783 4.00041636 3 6 C2 7 2 7 -1.96899414 7.11352539 C-3.74105607 7.1133662 -5.5131226 7.10766785 -7.28515625 7.09765625 C-8.21597519 7.0962413 -9.14679413 7.09482635 -10.1058197 7.09336853 C-13.09141191 7.08775172 -16.07693029 7.0751964 -19.0625 7.0625 C-21.08137913 7.05748716 -23.10025943 7.05292388 -25.11914062 7.04882812 C-30.07945572 7.03777683 -35.03971532 7.02050095 -40 7 C-40.33 6.01 -40.66 5.02 -41 4 C-27.8 3.67 -14.6 3.34 -1 3 C-0.67 2.01 -0.34 1.02 0 0 Z " fill="#F89519" transform="translate(51,29)"/>
<path d="M0 0 C0.99 0.33 1.98 0.66 3 1 C3.125 3.375 3.125 3.375 3 6 C0.3427238 8.6572762 -1.65802123 8.26014618 -5.27392578 8.30354309 C-6.13228027 8.30263168 -6.99063477 8.30172028 -7.875 8.30078125 C-8.75526855 8.30506638 -9.63553711 8.3093515 -10.54248047 8.31376648 C-12.40526468 8.31951441 -14.26807134 8.32000664 -16.13085938 8.31567383 C-18.98866841 8.31251253 -21.84544397 8.33597138 -24.703125 8.36132812 C-26.51041535 8.36360085 -28.31770851 8.36430474 -30.125 8.36328125 C-30.98335449 8.372491 -31.84170898 8.38170074 -32.72607422 8.39118958 C-35.1328125 8.37231445 -35.1328125 8.37231445 -39 8 C-39.66 7.01 -40.32 6.02 -41 5 C-28.13 4.67 -15.26 4.34 -2 4 C-1.34 2.68 -0.68 1.36 0 0 Z " fill="#F89519" transform="translate(51,13)"/>
<path d="M0 0 C0.99 0.33 1.98 0.66 3 1 C3 2.65 3 4.3 3 6 C2.01 6 1.02 6 0 6 C-1.33756081 6.02701989 -2.67504329 6.05804526 -4.01245117 6.09179688 C-4.81305466 6.11181763 -5.61365814 6.13183838 -6.43852234 6.15246582 C-7.29798965 6.1743396 -8.15745697 6.19621338 -9.04296875 6.21875 C-9.9265657 6.24094604 -10.81016266 6.26314209 -11.72053528 6.28601074 C-14.54286584 6.35698884 -17.36518292 6.42848818 -20.1875 6.5 C-22.10091059 6.54821141 -24.01432204 6.59638891 -25.92773438 6.64453125 C-30.61849959 6.76262734 -35.30925279 6.88119091 -40 7 C-40.33 6.34 -40.66 5.68 -41 5 C-28.13 4.67 -15.26 4.34 -2 4 C-1.34 2.68 -0.68 1.36 0 0 Z " fill="#F68E18" transform="translate(51,44)"/>
</svg>
